<?xml version="1.0" standalone="no"?>
<!DOCTYPE svg PUBLIC "-//W3C//DTD SVG 20010904//EN"
 "http://www.w3.org/TR/2001/REC-SVG-20010904/DTD/svg10.dtd">
<svg version="1.0" xmlns="http://www.w3.org/2000/svg"
 width="260.000000pt" height="260.000000pt" viewBox="0 0 260.000000 260.000000"
 preserveAspectRatio="xMidYMid meet">
<metadata>
Created by potrace 1.11, written by Peter Selinger 2001-2013
</metadata>
<g transform="translate(0.000000,260.000000) scale(0.100000,-0.100000)"
fill="#000000" stroke="none">
<path d="M0 2556 c0 -26 15 -56 63 -122 35 -49 141 -199 237 -334 95 -135 233
-328 305 -430 73 -102 218 -306 324 -455 105 -148 202 -283 215 -300 l23 -30
-2 40 c-1 35 -29 79 -212 335 -237 333 -833 1172 -901 1268 -24 34 -46 62 -48
62 -2 0 -4 -15 -4 -34z"/>
<path d="M2356 2258 c-130 -183 -242 -342 -250 -353 -8 -11 -63 -88 -123 -172
-59 -84 -207 -291 -327 -460 -184 -258 -220 -314 -221 -345 -1 -20 2 -35 6
-33 4 3 81 110 172 238 90 127 349 492 576 810 348 490 411 584 411 613 0 19
-2 34 -4 34 -3 0 -111 -150 -240 -332z"/>
<path d="M0 2384 c0 -35 21 -69 193 -310 105 -148 244 -343 307 -433 63 -89
178 -250 256 -359 77 -108 195 -273 261 -367 168 -236 151 -217 148 -167 -2
34 -20 65 -101 179 -54 76 -157 221 -229 323 -137 192 -623 877 -753 1060 -41
58 -77 107 -78 109 -2 2 -4 -13 -4 -35z"/>
<path d="M2540 2340 c-30 -44 -63 -90 -72 -102 -9 -13 -60 -84 -112 -158 -52
-74 -99 -139 -103 -145 -13 -15 -52 -71 -448 -629 -296 -416 -369 -526 -370
-553 -1 -19 2 -32 6 -31 7 2 306 420 697 973 23 33 49 69 57 80 8 11 102 144
209 295 171 240 196 280 196 313 0 20 -1 37 -2 37 -2 0 -28 -36 -58 -80z"/>
<path d="M0 2206 c0 -33 22 -69 168 -274 93 -131 281 -394 417 -587 137 -192
322 -453 412 -579 89 -126 165 -222 167 -215 13 43 22 30 -369 579 -154 216
-444 624 -589 828 -118 167 -196 275 -202 281 -2 2 -4 -13 -4 -33z"/>
<path d="M2383 1943 c-116 -164 -300 -422 -407 -573 -107 -151 -201 -283 -208
-292 -7 -9 -85 -118 -173 -243 -128 -182 -160 -232 -160 -260 -1 -19 1 -35 4
-35 3 1 137 186 298 413 161 227 407 574 547 772 141 198 259 365 263 370 42
51 54 78 51 111 -3 34 -12 23 -215 -263z"/>
<path d="M0 2027 c0 -31 15 -58 88 -160 49 -67 166 -232 262 -367 95 -135 217
-306 270 -380 88 -123 379 -534 488 -687 55 -79 62 -83 58 -35 -2 31 -30 76
-147 240 -140 196 -231 324 -747 1052 -135 190 -251 352 -259 360 -11 12 -13
9 -13 -23z"/>
<path d="M2339 1705 c-140 -198 -368 -520 -507 -715 -138 -195 -255 -359 -259
-365 -71 -89 -137 -195 -139 -223 -1 -18 2 -32 8 -30 5 2 209 285 453 628 244
344 503 708 575 808 118 165 131 188 128 220 -3 35 -13 22 -259 -323z"/>
<path d="M0 1856 c0 -46 -100 99 914 -1326 88 -124 178 -251 200 -283 21 -32
42 -60 46 -62 4 -2 6 13 5 34 -1 32 -27 75 -167 272 -92 129 -232 326 -312
439 -80 113 -152 214 -160 225 -8 11 -43 61 -78 110 -36 50 -137 192 -226 317
-88 125 -175 246 -191 269 l-31 42 0 -37z"/>
<path d="M2380 1585 c-118 -168 -223 -315 -232 -327 -10 -13 -60 -84 -112
-158 -53 -74 -99 -139 -103 -145 -5 -5 -114 -158 -242 -340 -129 -181 -238
-336 -244 -342 -12 -17 -19 -85 -7 -81 5 2 101 134 215 293 372 524 547 771
747 1052 173 242 198 283 198 316 0 20 -1 37 -2 37 -2 0 -100 -138 -218 -305z"/>
<path d="M0 1676 c0 -34 21 -69 172 -280 607 -852 644 -905 848 -1194 74 -105
138 -191 141 -191 4 -1 6 15 5 34 -2 37 -8 46 -326 492 -344 483 -606 851
-738 1038 -106 150 -102 147 -102 101z"/>
<path d="M2015 895 c-483 -679 -580 -821 -581 -850 -1 -19 1 -35 5 -35 3 1
107 145 231 321 124 176 230 325 235 332 6 7 165 229 353 494 316 444 343 485
340 518 -3 34 -35 -9 -583 -780z"/>
</g>
</svg>
